<?xml version="1.0" standalone="no"?>
<!DOCTYPE svg PUBLIC "-//W3C//DTD SVG 20010904//EN"
 "http://www.w3.org/TR/2001/REC-SVG-20010904/DTD/svg10.dtd">
<svg version="1.0" xmlns="http://www.w3.org/2000/svg"
 width="250.000000pt" height="250.000000pt" viewBox="0 0 250.000000 250.000000"
 preserveAspectRatio="xMidYMid meet">
<metadata>
Created by potrace 1.11, written by Peter Selinger 2001-2013
</metadata>
<g transform="translate(0.000000,250.000000) scale(0.100000,-0.100000)"
fill="#000000" stroke="none">
<path d="M988 2315 c-2 -1 -30 -5 -63 -9 -238 -25 -507 -169 -660 -354 l-19
-23 304 2 c168 1 310 1 315 0 6 -1 11 -105 13 -284 1 -155 4 -433 6 -617 2
-184 5 -449 7 -588 2 -248 2 -254 23 -262 12 -4 84 -6 161 -4 138 3 173 6 213
18 11 4 30 9 41 11 43 10 57 14 98 29 70 25 184 85 248 131 82 58 184 155 165
156 -8 1 -153 1 -321 0 l-305 -2 -1 98 c0 54 -3 373 -7 709 l-6 611 152 2
c269 4 503 8 508 10 10 3 -109 115 -170 161 -174 129 -379 199 -602 205 -54 1
-99 1 -100 0z"/>
<path d="M1479 1650 c0 -17 0 -134 4 -563 l2 -287 274 2 274 3 24 53 c29 66
29 73 -1 101 -71 67 -95 236 -46 335 13 27 41 68 62 89 36 37 38 43 32 81 -3
23 -18 77 -33 121 l-26 80 -283 0 c-244 0 -282 -2 -283 -15z"/>
<path d="M187 1652 l-107 -3 -14 -33 c-67 -161 -81 -454 -31 -637 9 -30 17
-61 19 -69 31 -119 143 -303 252 -415 90 -92 262 -215 301 -215 7 0 9 123 6
392 -4 456 -11 959 -12 973 -1 10 -187 13 -414 7z"/>
<path d="M2220 1368 c-150 -43 -194 -234 -80 -348 44 -44 115 -70 174 -63 109
12 190 113 179 224 -13 131 -147 223 -273 187z"/>
</g>
</svg>
