<svg height="405pt" viewBox="-1 0 405 405.94814" width="405pt" xmlns="http://www.w3.org/2000/svg"><path d="m400.605469 11.636719-1.851563-3.023438c-2.527344-4.109375-6.5-6.992187-11.195312-8.113281-4.699219-1.117188-9.539063-.347656-13.652344 2.175781l-167.890625 103.085938-2.347656-3.820313c-.492188-.796875-1.140625-1.484375-1.898438-2.019531l-40.679687-28.496094c-.382813-.265625-.78125-.488281-1.207032-.671875-5.90625-2.558594-12.699218-2.082031-18.195312 1.289063-5.484375 3.371093-8.992188 9.214843-9.378906 15.644531-.027344.457031-.007813.917969.054687 1.375l7.003907 49.171875c.132812.925781.453124 1.8125.941406 2.609375l20.261718 32.996094h-11.082031c-20.261719 0-37.121093 14.789062-40.378906 34.136718h-101.808594c-2.699219 0-5.140625 1.589844-6.238281 4.050782-1.09375 2.46875-.636719 5.347656 1.171875 7.351562 45.28125 50.125 100.894531 80.011719 161.046875 86.628906 10.601562 5.832032 17.308594 16.890626 17.308594 29.003907 0 13.171875-7.914063 25.113281-20.160156 30.421875-2.5 1.085937-4.113282 3.542968-4.113282 6.265625v27.421875c0 3.769531 3.054688 6.828125 6.828125 6.828125h157.011719c3.773438 0 6.828125-3.058594 6.828125-6.828125v-27.667969c0-2.671875-1.554687-5.09375-3.980469-6.207031-11.414062-5.230469-23.375-29.605469-23.582031-38.363282-.511719-21.253906 7.609375-41.503906 22.855469-57.03125 15.226562-15.5 35.566406-24.3125 57.265625-24.816406l2.089843-.03125c3.753907-.019531 6.792969-3.070312 6.792969-6.828125v-23.375c0-3.769531-3.054687-6.828125-6.828125-6.828125h-37.769531c6.503906-7.25 10.464844-16.824218 10.464844-27.304687 0-3.773438-3.054688-6.828125-6.828125-6.828125h-112.691406c3.644531-6.742188 3.722656-15.183594-.5625-22.167969l-7.4375-12.109375 167.894531-103.089844c8.484375-5.207031 11.144531-16.351562 5.9375-24.835937zm-254.609375 76.308593c.265625-1.777343 1.277344-3.3125 2.839844-4.269531 1.542968-.949219 3.371093-1.167969 5.085937-.601562l38.851563 27.21875 29.792968 48.527343c2.460938 4 1.199219 9.257813-2.800781 11.714844l-25.570313 15.699219c-1.929687 1.191406-4.195312 1.5625-6.441406 1.023437-2.210937-.527343-4.085937-1.886718-5.273437-3.828124l-29.792969-48.523438zm-30.640625 133.683594h40.960937v69.714844c-48.886718-7.332031-94.445312-31.191406-133.09375-69.714844zm54.609375 163.839844h19.175781c-.75 2.214844-1.320313 4.492188-1.699219 6.828125h-17.476562zm31.386718 6.828125c3.628907-15.011719 18.96875-26.3125 37.289063-26.3125s33.667969 11.300781 37.292969 26.3125zm111.972657 0h-23.480469c-.378906-2.335937-.949219-4.613281-1.699219-6.828125h25.179688zm61.441406-160.703125c-23.59375 1.621094-45.546875 11.710938-62.234375 28.691406-17.851562 18.179688-27.359375 41.949219-26.765625 66.925782.246094 10.347656 9.632813 32.675781 22.957031 44.605468h-28.089844c-9.410156-11.792968-24.722656-19.488281-41.992187-19.488281-17.273437 0-32.585937 7.695313-41.992187 19.488281h-20.480469c11.230469-8.761718 18.070312-22.234375 18.070312-36.800781 0-15.585937-7.824219-29.921875-20.480469-38.566406-.792968-1.507813-2.136718-2.679688-3.789062-3.253907v-71.5625h204.800781v9.960938zm-61.441406-23.617188h-190.277344c3.03125-11.765624 13.738281-20.480468 26.4375-20.480468h19.464844l1.890625 3.078125c3.097656 5.050781 7.980468 8.585937 13.742187 9.964843 1.726563.414063 3.464844.617188 5.199219.617188 4.046875 0 8.027344-1.117188 11.558594-3.285156l16.894531-10.375h121.53125c-3.03125 11.761718-13.738281 20.480468-26.441406 20.480468zm76.175781-185.867187c-.273438 1.148437-.972656 2.117187-1.980469 2.734375l-167.894531 103.085938-6.464844-10.53125 167.894532-103.089844c1.003906-.613282 2.171874-.796875 3.332031-.53125 1.140625.277344 2.113281.980468 2.726562 1.980468l1.855469 3.019532c.617188 1.003906.804688 2.191406.53125 3.332031zm0 0"/><path d="m279.191406 235.28125h-52.652344c-3.773437 0-6.828124 3.058594-6.828124 6.828125s3.054687 6.828125 6.828124 6.828125h52.652344c3.773438 0 6.828125-3.058594 6.828125-6.828125s-3.054687-6.828125-6.828125-6.828125zm0 0"/><path d="m201.257812 235.28125h-10.8125c-3.773437 0-6.824218 3.058594-6.824218 6.828125s3.050781 6.828125 6.824218 6.828125h10.8125c3.773438 0 6.828126-3.058594 6.828126-6.828125s-3.054688-6.828125-6.828126-6.828125zm0 0"/><path d="m90.046875 158.191406c1.332031 1.332032 3.078125 2 4.824219 2s3.496094-.667968 4.828125-2c2.664062-2.667968 2.664062-6.988281 0-9.65625l-20.480469-20.476562c-2.664062-2.667969-6.988281-2.667969-9.652344 0-2.664062 2.664062-2.664062 6.984375 0 9.652344zm0 0"/><path d="m60.742188 180.667969h27.304687c3.773437 0 6.828125-3.054688 6.828125-6.824219s-3.054688-6.828125-6.828125-6.828125h-27.304687c-3.773438 0-6.828126 3.058594-6.828126 6.828125s3.054688 6.824219 6.828126 6.824219zm0 0"/></svg>