<svg id="Layer_1" enable-background="new 0 0 512.001 512.001" height="512" viewBox="0 0 512.001 512.001" width="512" xmlns="http://www.w3.org/2000/svg"><path d="m154.361 242.556h130.244l-33.531-33.531-15.292 15.292-21.213-21.213 51.797-51.796 21.213 21.213-15.292 15.292 53.53 53.53v-44.046c0-70.65-57.479-128.129-128.129-128.129h-140.355v113.32h71.099z"/><path d="m419.803 194.963h64.542v64.542h-64.542z"/><path d="m419.803 289.505h64.542v64.544h-64.542z"/><path d="m274.994 412.543c0-16.703-13.588-30.291-30.291-30.291s-30.291 13.588-30.291 30.291c0 16.702 13.588 30.291 30.291 30.291s30.291-13.589 30.291-30.291z"/><path d="m111.406 412.543c0-16.703-13.588-30.291-30.291-30.291s-30.291 13.588-30.291 30.291c0 16.702 13.588 30.291 30.291 30.291s30.291-13.589 30.291-30.291z"/><path d="m389.801 384.051v-262.919h-30v211.775h-33.984v-60.351h-191.181l-25.93-60.068-108.706.002v201.562h20.862c-.012-.503-.038-1.002-.038-1.508 0-33.245 27.046-60.291 60.291-60.291s60.291 27.046 60.291 60.291c0 .506-.026 1.005-.038 1.508h43.082c-.012-.503-.038-1.002-.038-1.508 0-33.245 27.046-60.291 60.291-60.291s60.291 27.046 60.291 60.291c0 .506-.026 1.005-.038 1.508h20.862v-51.144h33.984v51.144h152.2v-30h-122.201z"/></svg>