<?xml version="1.0" encoding="utf-8"?>
<!-- Generator: Adobe Illustrator 22.1.0, SVG Export Plug-In . SVG Version: 6.00 Build 0)  -->
<svg version="1.1" id="Слой_1" xmlns="http://www.w3.org/2000/svg" xmlns:xlink="http://www.w3.org/1999/xlink" x="0px" y="0px"
	 viewBox="0 0 510.2 92.8" style="enable-background:new 0 0 510.2 92.8;" xml:space="preserve">
<style type="text/css">
	.st0{fill:#ED1C24;}
	.st1{fill:#FFFFFF;}
</style>
<path class="st0" d="M97.9,40.8c5-0.8,9.8,2.4,10.9,7.4c1,4.8-2,9.5-6.7,10.5c-0.1,0-0.2,0.1-0.4,0.1c-5,0.9-9.8-2.4-10.9-7.4
	c-1-4.8,2-9.5,6.7-10.5C97.6,40.8,97.8,40.8,97.9,40.8z"/>
<path class="st1" d="M303.5,73.4c3.1,0.2,5.4,2.9,5.2,6c-0.2,3.1-2.9,5.5-6,5.3s-5.4-2.9-5.2-5.9v-0.1
	C297.7,75.6,300.3,73.2,303.5,73.4z M495,69.5h5.3v0.8c1.5-0.8,3.1-1.2,4.8-1.2c2.1,0,3.1,0.9,3.1,2.6v4.9h-5.3v-4.2
	c0-0.3-0.2-0.5-0.4-0.6c-0.3-0.1-0.6-0.2-0.9-0.2s-0.6,0.1-0.9,0.2c-0.3,0.2-0.4,0.3-0.4,0.6l-0.2,17.9h-5.3L495,69.5L495,69.5z
	 M466.8,78.8h2.5l0.1-7c0-0.4-0.5-0.7-1.4-0.7c-0.8,0-1.1,0.2-1.1,0.7L466.8,78.8z M469.3,82.8h5.3v4.7c0.1,1.1-0.5,2.1-1.5,2.5
	c-1.1,0.4-2.4,0.6-3.6,0.6h-3.2c-3.3,0-4.9-1-4.9-3l0.1-15.6c0-2.1,1.7-3.1,4.9-3.1h3.2c1.3-0.1,2.6,0.2,3.7,0.8
	c0.8,0.4,1.3,1.3,1.3,2.2l-0.1,8.9h-7.9l-0.1,7c0,0.4,0.4,0.6,1.1,0.6c0.9,0,1.4-0.2,1.4-0.6L469.3,82.8L469.3,82.8z M429.8,71.4
	v-2.2h2.8V64h5.4v5.2h3.8v2.2H438l-0.1,15.4c0,0.9,0.7,1.3,2,1.3h1.8v2.3h-3.4c-1.4,0-2.7-0.2-4-0.6c-1.1-0.3-1.9-1.4-1.7-2.6
	l0.1-15.8H429.8z M397.2,89.9l0.2-20.8h5.3V70c1.5-0.8,3.1-1.2,4.8-1.3c2.1,0,3.1,0.9,3.1,2.8L410.4,90h-5.3l0.2-18
	c0-0.2-0.1-0.3-0.4-0.5c-0.2-0.1-0.5-0.2-0.7-0.2c-0.3,0-0.7,0.1-1,0.3c-0.3,0.2-0.4,0.3-0.5,0.5l-0.1,18L397.2,89.9L397.2,89.9z
	 M369,78.5h2.5v-7c0-0.4-0.5-0.7-1.4-0.7c-0.7,0-1.1,0.2-1.1,0.7V78.5z M371.6,82.5h5.3v4.7c0.1,1.1-0.5,2.1-1.5,2.4
	c-1.1,0.4-2.4,0.6-3.6,0.6h-3.2c-3.3,0-4.9-1-4.9-3l0.1-15.5c0-2.1,1.6-3.1,4.9-3.1h3.2c1.3-0.1,2.6,0.2,3.7,0.8
	c0.8,0.4,1.3,1.3,1.3,2.2l-0.1,8.9h-7.9v7c0,0.4,0.4,0.6,1.1,0.6c0.9,0,1.4-0.2,1.4-0.6L371.6,82.5z M337.6,82.4h5.3v4.5
	c0,1.4-0.5,2.3-1.3,2.7c-1.2,0.4-2.5,0.6-3.7,0.5h-3.3c-1.2,0-2.4-0.1-3.6-0.5c-0.9-0.4-1.3-1.2-1.3-2.6l0.1-15.2
	c0-1.4,0.4-2.4,1.3-2.8c1.1-0.4,2.3-0.6,3.5-0.6h3.4c1.2-0.1,2.5,0.1,3.7,0.6c0.9,0.4,1.3,1.3,1.3,2.7V76h-5.3v-4.6
	c0-0.2-0.2-0.4-0.4-0.5c-0.3-0.1-0.6-0.2-1-0.2c-0.3,0-0.6,0.1-0.9,0.2c-0.2,0.1-0.3,0.3-0.4,0.5v15.9c0,0.5,0.4,0.7,1.2,0.7
	s1.3-0.2,1.3-0.7L337.6,82.4L337.6,82.4z M264.5,89.5l0.2-26h5.3l-0.2,26H264.5z M238.7,78.4c-0.8,0.2-1.5,0.5-2.2,0.9
	c-0.3,0.2-0.5,0.6-0.6,1c0,0.1,0,0.1,0.1,0.2c0,0,0.1,0.1,0.1,0.2v5.9c0,0.3,0.1,0.5,0.4,0.6c0.3,0.1,0.5,0.2,0.8,0.2
	s0.6-0.1,0.9-0.2c0.3-0.1,0.4-0.3,0.4-0.6L238.7,78.4z M230.9,74.9v-4c0-1.8,1.7-2.7,5.1-2.7h3.5c1.1,0,2.3,0.2,3.3,0.7
	c0.8,0.4,1.3,1.1,1.3,2l-0.2,18.5h-5.3v-0.9c-1.4,0.9-3,1.3-4.6,1.3c-1.4,0-2.4-0.3-2.7-0.9c-0.4-0.7-0.6-1.5-0.6-2.2l0.1-6
	c0-0.8,0.5-1.4,1.6-2c1-0.5,2-0.9,3-1.2c0.8-0.2,1.7-0.5,2.4-0.9c0.5-0.3,0.9-0.8,0.9-1.4v-4.1c0-0.2-0.2-0.4-0.4-0.5
	c-0.3-0.1-0.5-0.2-0.8-0.2c-0.9,0-1.3,0.2-1.3,0.7V75L230.9,74.9z M199.6,70.7v-2.2h2.8v-5.2h5.4v5.2h3.8v2.2h-3.8l-0.1,15.4
	c0,0.9,0.7,1.3,2,1.3h1.8v2.3H208c-1.4,0-2.7-0.2-4-0.6c-1.1-0.3-1.9-1.4-1.7-2.6l0.1-15.9L199.6,70.7L199.6,70.7z M172.8,77.8h2.5
	l0.1-7c0-0.4-0.5-0.7-1.4-0.7c-0.7,0-1.1,0.2-1.1,0.7L172.8,77.8z M175.3,81.8h5.3v4.7c0.1,1.1-0.5,2.1-1.5,2.5
	c-1.1,0.4-2.4,0.6-3.6,0.6h-3.2c-3.3,0-4.9-1-4.9-3l0.1-15.5c0-2.1,1.6-3.1,4.9-3.1h3.2c1.3-0.1,2.6,0.2,3.7,0.8
	c0.8,0.5,1.2,1.3,1.2,2.2l-0.1,8.9h-7.9l-0.1,7c0,0.4,0.4,0.6,1.1,0.6c0.9,0,1.4-0.2,1.4-0.6L175.3,81.8L175.3,81.8z M124.8,89
	l0.2-20.7h5.3v1c0.7-0.5,1.4-0.8,2.1-1.1c0.7-0.3,1.5-0.4,2.3-0.4c1.3,0,2.5,0.5,3.3,1.5c1.4-0.9,3.1-1.4,4.8-1.4
	c2.1,0,3.2,0.9,3.2,2.7l-0.2,18.6h-5.3l0.2-18c0-0.2-0.1-0.3-0.4-0.4c-0.3-0.2-0.7-0.3-1-0.2c-0.3,0-0.7,0.1-0.9,0.2
	c-0.2,0.2-0.4,0.3-0.4,0.4l0.1,2.2V89h-5.4l0.1-18c0-0.2-0.1-0.4-0.3-0.5s-0.5-0.2-0.7-0.2c-0.3,0-0.7,0.1-1,0.2s-0.5,0.3-0.5,0.5
	l-0.2,18H124.8L124.8,89z M467.7,14.6v44.1h-2.5V12.1h10.1l12.5,32.3l12.4-32.3h10.1v46.5h-2.5v-44H502l-14.1,36.7h-0.3l-14-36.7
	C473.6,14.6,467.7,14.6,467.7,14.6z M491.1,58.7h-7l-10.3-26.4v26.4h-2.5V19.2h0.1l14.4,37h3.5l14.4-37h0.2v39.4h-2.5V32.3
	L491.1,58.7L491.1,58.7z M450.3,35.1c0-2.1-0.4-4.1-1.1-6c-0.7-1.8-1.7-3.4-3-4.9c-1.3-1.4-2.9-2.5-4.7-3.2
	c-1.9-0.8-3.8-1.2-5.9-1.2c-1.9,0-3.9,0.4-5.7,1.2c-1.7,0.8-3.3,1.9-4.6,3.3c-1.3,1.4-2.3,3.1-3,4.9c-0.7,1.9-1.1,3.9-1.1,5.9
	c0,2.2,0.3,4.4,1.1,6.5c0.7,1.8,1.7,3.5,3,5c1.3,1.4,2.9,2.5,4.6,3.2c1.8,0.8,3.8,1.2,5.8,1.1c2,0,3.9-0.4,5.7-1.2
	c1.7-0.8,3.3-1.8,4.6-3.2c1.3-1.5,2.3-3.2,3-5C449.9,39.5,450.3,37.3,450.3,35.1L450.3,35.1z M459.2,35.1c0,3.2-0.6,6.4-1.9,9.4
	c-1.2,2.9-3,5.5-5.1,7.8c-2.1,2.2-4.7,4-7.5,5.3c-5.8,2.6-12.4,2.6-18.1,0c-2.8-1.3-5.3-3-7.4-5.3c-4.4-4.6-6.9-10.8-6.8-17.2
	c0-3.1,0.7-6.2,1.9-9s3-5.4,5.1-7.6s4.7-4,7.4-5.3c2.8-1.3,5.8-2,8.9-2s6.2,0.7,9,1.9c2.8,1.3,5.4,3,7.5,5.3
	c2.2,2.2,3.9,4.8,5.1,7.6C458.6,28.9,459.2,32,459.2,35.1z M452.8,35.1c0,2.5-0.4,5-1.3,7.3c-0.8,2.2-2.1,4.1-3.6,5.8
	c-1.5,1.6-3.4,2.9-5.4,3.9c-2.1,1-4.3,1.4-6.6,1.4s-4.6-0.5-6.7-1.4s-3.9-2.2-5.5-3.8c-1.6-1.7-2.9-3.6-3.7-5.8
	c-0.9-2.3-1.4-4.9-1.4-7.4c0-2.3,0.5-4.6,1.4-6.7s2.1-4,3.7-5.7c1.5-1.6,3.4-3,5.4-3.9c2-1,4.3-1.5,6.6-1.5s4.6,0.5,6.7,1.5
	c2,0.9,3.9,2.3,5.4,3.9c1.6,1.6,2.8,3.6,3.7,5.7C452.4,30.4,452.8,32.7,452.8,35.1z M456.7,35.1c0-2.8-0.6-5.7-1.7-8.3
	c-1.1-2.5-2.6-4.8-4.5-6.8c-1.9-1.9-4.2-3.5-6.7-4.6c-2.6-1.1-5.4-1.7-8.2-1.7c-2.8,0-5.5,0.6-8.1,1.7c-2.5,1.1-4.7,2.7-6.6,4.7
	s-3.4,4.3-4.4,6.8c-1.1,2.6-1.7,5.3-1.6,8.1c0,3,0.5,5.9,1.6,8.7c1,2.6,2.5,4.9,4.4,6.9c1.9,1.9,4.1,3.5,6.6,4.6
	c5.3,2.2,11.2,2.2,16.4,0c2.5-1.1,4.8-2.7,6.7-4.6c1.9-2,3.5-4.3,4.5-6.9C456.1,41,456.7,38.1,456.7,35.1L456.7,35.1z M404.7,27.6
	h-3.2c-1.5-2.2-3.4-4.2-5.6-5.8c-2-1.3-4.4-1.9-6.8-1.8c-1.9,0-3.9,0.4-5.6,1.2c-1.7,0.8-3.2,1.8-4.5,3.2c-1.3,1.4-2.3,3-3,4.8
	c-0.7,1.9-1,3.9-1,5.9c0,2.2,0.3,4.4,1.1,6.5c0.7,1.8,1.7,3.5,3,5c2.6,2.8,6.2,4.3,10,4.3c2.3,0,4.6-0.5,6.6-1.6
	c2.3-1.4,4.3-3.4,5.8-5.6h3l-1.6,2.4c-1.5,2.3-3.6,4.2-6,5.4s-5,1.8-7.7,1.8c-2.2,0-4.4-0.5-6.4-1.4s-3.8-2.2-5.3-3.8
	c-1.6-1.7-2.8-3.6-3.6-5.8c-0.9-2.3-1.4-4.8-1.3-7.3c0-2.3,0.4-4.5,1.3-6.7c0.8-2.1,2-4,3.5-5.6s3.3-2.9,5.3-3.8
	c2.1-0.9,4.3-1.4,6.5-1.4c1.5,0,3,0.2,4.5,0.6c1.4,0.4,2.7,1,3.9,1.8c1.3,0.9,2.5,1.9,3.6,3.1C402.3,24.4,403.5,26,404.7,27.6
	L404.7,27.6z M411.5,27.6h-2.9c-2.5-5-5.4-8.5-8.6-10.6c-3.2-2.2-7-3.3-10.9-3.2c-2.8,0-5.6,0.6-8.1,1.7s-4.7,2.7-6.5,4.6
	c-1.9,2-3.4,4.3-4.4,6.8c-1.1,2.6-1.6,5.4-1.6,8.1c0,3,0.5,5.9,1.5,8.6c1,2.6,2.4,4.9,4.3,6.9s4.1,3.5,6.5,4.6
	c2.6,1.2,5.5,1.8,8.4,1.7c3.7,0.1,7.4-0.9,10.5-2.9s5.7-4.8,7.5-8l1.4-2.5h2.8c-2.7,5.4-5.9,9.4-9.5,12c-3.7,2.6-8.2,4-12.7,3.9
	c-3.2,0-6.3-0.6-9.2-2c-2.8-1.2-5.3-3-7.4-5.3s-3.8-4.9-4.9-7.8c-1.2-3-1.8-6.2-1.8-9.4c0-3.1,0.6-6.2,1.9-9c1.2-2.8,2.9-5.4,5-7.6
	s4.6-4,7.4-5.3s5.9-2,9-2c4.6-0.1,9.1,1.3,12.8,3.9C405.6,17.6,408.8,21.8,411.5,27.6L411.5,27.6z M361.4,30.9v8.4h-18v-8.4
	C343.4,30.9,361.4,30.9,361.4,30.9z M358.8,36.8v-3.4H346v3.4H358.8z M342.2,58.6l-15.7-23.5L342,12h3l-15.4,23.1l15.8,23.5H342.2z
	 M324.4,32l-13-20h3.1l9.9,15.3l9.9-15.3h3.2L324.4,32z M322.1,35.1l-15.8,23.5h-3.1L319,35.1L303.6,12h3.1L322.1,35.1z M314.1,58.6
	h-3.2l13.5-20.3l13.3,20.4h-3.2l-10.1-15.8L314.1,58.6L314.1,58.6z M282.4,52.6V36.4h17.8v2.5h-15.3v11.3h17.3v2.5
	C302.2,52.7,282.4,52.6,282.4,52.6z M282.4,32.9v-15h19.8v2.5H285v10.1h15.3V33C300.3,33,282.4,32.9,282.4,32.9z M302.2,58.5h-26V12
	h26.1v2.5h-23.5v41.7h23.5v2.3H302.2z M232.4,58.5V12h8.7l18.4,30.1V12h2.6v39.3l-22.4-36.8H235v44.1L232.4,58.5L232.4,58.5z
	 M241.1,58.5h-2.5v-39L260.9,56h4.8V12h2.5v46.5h-8.7l-18.4-30V58.5z M217.6,34.9c0-2.1-0.4-4.1-1.1-6c-0.7-1.8-1.7-3.4-3-4.9
	c-1.3-1.4-2.9-2.5-4.6-3.2c-1.9-0.8-3.9-1.2-5.9-1.2s-3.9,0.4-5.7,1.2c-1.7,0.8-3.3,1.9-4.6,3.3c-2.7,3-4.2,6.8-4.2,10.9
	c0,2.2,0.3,4.4,1.1,6.5c0.7,1.8,1.7,3.5,3,5c1.3,1.4,2.9,2.5,4.6,3.2c1.9,0.8,3.9,1.1,5.9,1.1s4-0.4,5.8-1.2
	c1.7-0.8,3.3-1.9,4.6-3.2c1.3-1.4,2.4-3.1,3-5C217.3,39.3,217.7,37.1,217.6,34.9L217.6,34.9z M226.6,35c0,3.2-0.6,6.4-1.9,9.4
	c-1.2,2.9-3,5.5-5.1,7.8c-2.2,2.2-4.7,4-7.5,5.3c-5.8,2.6-12.4,2.6-18.1,0c-2.8-1.3-5.3-3-7.4-5.2c-2.1-2.2-3.8-4.9-5-7.7
	c-1.2-3-1.8-6.2-1.8-9.4c0-3.1,0.7-6.2,1.9-9s3-5.4,5.1-7.6s4.7-4,7.4-5.3c2.8-1.3,5.8-2,8.9-2c3.1,0,6.2,0.7,9,1.9
	c2.8,1.3,5.4,3,7.5,5.3c2.2,2.2,3.9,4.8,5.1,7.6C225.9,28.8,226.6,31.9,226.6,35L226.6,35z M220.2,34.9c0,2.5-0.4,5-1.3,7.3
	c-0.8,2.1-2.1,4.1-3.7,5.8c-1.5,1.6-3.4,2.9-5.4,3.9c-2.1,0.9-4.3,1.4-6.6,1.4s-4.6-0.5-6.7-1.4c-2.1-0.9-3.9-2.2-5.5-3.8
	c-1.6-1.7-2.9-3.6-3.7-5.8c-0.9-2.3-1.4-4.8-1.4-7.3c0-2.3,0.5-4.6,1.4-6.7s2.1-4,3.7-5.7c1.5-1.6,3.4-3,5.4-3.9
	c2-1,4.3-1.5,6.6-1.5s4.6,0.5,6.7,1.5c2,0.9,3.9,2.3,5.4,3.9C218.4,25.8,220.2,30.3,220.2,34.9z M224,35c0-2.8-0.5-5.7-1.6-8.3
	c-1.1-2.5-2.6-4.8-4.5-6.8c-1.9-1.9-4.2-3.5-6.7-4.6c-2.6-1.1-5.4-1.7-8.2-1.7s-5.5,0.6-8.1,1.7c-2.5,1.1-4.7,2.7-6.6,4.7
	c-1.9,2-3.4,4.3-4.5,6.8c-1.1,2.6-1.7,5.4-1.7,8.2c0,3,0.5,5.9,1.6,8.7c1,2.6,2.5,4.9,4.4,6.9s4.1,3.5,6.6,4.6
	c5.3,2.2,11.2,2.2,16.4,0c2.5-1.1,4.8-2.7,6.7-4.6c1.9-2,3.5-4.3,4.5-6.9C223.5,40.9,224,38,224,35L224,35z M156.4,20.3v11.9h2.2
	c1.5,0,2.9-0.1,4.4-0.3c0.9-0.1,1.8-0.5,2.6-1c0.6-0.4,1-1.1,1.2-1.8c0.2-0.9,0.3-1.8,0.3-2.7c0-1-0.1-2.1-0.4-3.1
	c-0.2-0.7-0.7-1.4-1.3-1.9c-0.7-0.5-1.5-0.8-2.4-0.9c-1.2-0.2-2.5-0.3-3.7-0.3L156.4,20.3L156.4,20.3z M153.8,34.7V17.8h5.5
	c3.3,0,5.9,0.6,7.6,2c1.8,1.3,2.6,3.5,2.6,6.7c0.1,2.3-0.7,4.5-2.4,6.1c-1.6,1.5-4.5,2.2-8.7,2.2L153.8,34.7L153.8,34.7z M168,58.5
	l-11.6-16v16h-2.6V34.8l17.3,23.7H168z M147.5,11.9h2.6v46.6h-2.6C147.5,58.5,147.5,11.9,147.5,11.9z M178.8,58.5h-3.2l-15.4-20.8
	c4.5,0,7.9-1,10-3.1c2.2-2.2,3.4-5.2,3.3-8.3c0-7.9-4.6-11.9-13.8-11.9h-5.8v-2.5h5.8c5.5,0,9.5,1.3,12.3,3.8s4.1,6.1,4.1,10.6
	c0.1,3.1-1,6.1-2.9,8.6c-2.1,2.5-5.1,4.2-8.3,4.8L178.8,58.5L178.8,58.5z M125.8,20.3h-8.2v-2.5h10.8v40.6h-2.5
	C125.8,58.5,125.8,20.3,125.8,20.3z M143,11.9v2.5h-25.4v-2.5H143z M134.6,58.5h-2.5V17.8H143v2.5h-8.4V58.5z M26.9,88.4
	C4.4,78-5.9,51.8,3.4,28.8l22.9-0.2C26.3,28.6,26.9,88.4,26.9,88.4z M89.1,28c1.5,3.4,2.6,7.1,3.2,10.8c-3.4,2.3-5.5,6-5.8,10.1
	s1.3,8.2,4.5,10.9c-0.6,1.9-1.3,3.7-2.1,5.5l-24,0.2l-0.4-37.3C64.5,28.2,89.1,28,89.1,28z M45.9,0c13.7-0.1,26.7,5.7,35.6,16.1
	l-29.3,0.3l0.1,12l0.4,37.3l0.1,12l28-0.3C70.4,89.1,54.6,94.7,39,92.1l-0.7-63.6l-0.1-12l-27.5,0.3C19.4,6.2,32.3,0.1,45.9,0z"/>
</svg>
