<svg xmlns="http://www.w3.org/2000/svg" xmlns:xlink="http://www.w3.org/1999/xlink"><symbol id="anvil" viewBox="-1 0 405 405.94814"><path d="m400.605469 11.636719-1.851563-3.023438c-2.527344-4.109375-6.5-6.992187-11.195312-8.113281-4.699219-1.117188-9.539063-.347656-13.652344 2.175781l-167.890625 103.085938-2.347656-3.820313c-.492188-.796875-1.140625-1.484375-1.898438-2.019531l-40.679687-28.496094c-.382813-.265625-.78125-.488281-1.207032-.671875-5.90625-2.558594-12.699218-2.082031-18.195312 1.289063-5.484375 3.371093-8.992188 9.214843-9.378906 15.644531-.027344.457031-.007813.917969.054687 1.375l7.003907 49.171875c.132812.925781.453124 1.8125.941406 2.609375l20.261718 32.996094h-11.082031c-20.261719 0-37.121093 14.789062-40.378906 34.136718h-101.808594c-2.699219 0-5.140625 1.589844-6.238281 4.050782-1.09375 2.46875-.636719 5.347656 1.171875 7.351562 45.28125 50.125 100.894531 80.011719 161.046875 86.628906 10.601562 5.832032 17.308594 16.890626 17.308594 29.003907 0 13.171875-7.914063 25.113281-20.160156 30.421875-2.5 1.085937-4.113282 3.542968-4.113282 6.265625v27.421875c0 3.769531 3.054688 6.828125 6.828125 6.828125h157.011719c3.773438 0 6.828125-3.058594 6.828125-6.828125v-27.667969c0-2.671875-1.554687-5.09375-3.980469-6.207031-11.414062-5.230469-23.375-29.605469-23.582031-38.363282-.511719-21.253906 7.609375-41.503906 22.855469-57.03125 15.226562-15.5 35.566406-24.3125 57.265625-24.816406l2.089843-.03125c3.753907-.019531 6.792969-3.070312 6.792969-6.828125v-23.375c0-3.769531-3.054687-6.828125-6.828125-6.828125h-37.769531c6.503906-7.25 10.464844-16.824218 10.464844-27.304687 0-3.773438-3.054688-6.828125-6.828125-6.828125h-112.691406c3.644531-6.742188 3.722656-15.183594-.5625-22.167969l-7.4375-12.109375 167.894531-103.089844c8.484375-5.207031 11.144531-16.351562 5.9375-24.835937zm-254.609375 76.308593c.265625-1.777343 1.277344-3.3125 2.839844-4.269531 1.542968-.949219 3.371093-1.167969 5.085937-.601562l38.851563 27.21875 29.792968 48.527343c2.460938 4 1.199219 9.257813-2.800781 11.714844l-25.570313 15.699219c-1.929687 1.191406-4.195312 1.5625-6.441406 1.023437-2.210937-.527343-4.085937-1.886718-5.273437-3.828124l-29.792969-48.523438zm-30.640625 133.683594h40.960937v69.714844c-48.886718-7.332031-94.445312-31.191406-133.09375-69.714844zm54.609375 163.839844h19.175781c-.75 2.214844-1.320313 4.492188-1.699219 6.828125h-17.476562zm31.386718 6.828125c3.628907-15.011719 18.96875-26.3125 37.289063-26.3125s33.667969 11.300781 37.292969 26.3125zm111.972657 0h-23.480469c-.378906-2.335937-.949219-4.613281-1.699219-6.828125h25.179688zm61.441406-160.703125c-23.59375 1.621094-45.546875 11.710938-62.234375 28.691406-17.851562 18.179688-27.359375 41.949219-26.765625 66.925782.246094 10.347656 9.632813 32.675781 22.957031 44.605468h-28.089844c-9.410156-11.792968-24.722656-19.488281-41.992187-19.488281-17.273437 0-32.585937 7.695313-41.992187 19.488281h-20.480469c11.230469-8.761718 18.070312-22.234375 18.070312-36.800781 0-15.585937-7.824219-29.921875-20.480469-38.566406-.792968-1.507813-2.136718-2.679688-3.789062-3.253907v-71.5625h204.800781v9.960938zm-61.441406-23.617188h-190.277344c3.03125-11.765624 13.738281-20.480468 26.4375-20.480468h19.464844l1.890625 3.078125c3.097656 5.050781 7.980468 8.585937 13.742187 9.964843 1.726563.414063 3.464844.617188 5.199219.617188 4.046875 0 8.027344-1.117188 11.558594-3.285156l16.894531-10.375h121.53125c-3.03125 11.761718-13.738281 20.480468-26.441406 20.480468zm76.175781-185.867187c-.273438 1.148437-.972656 2.117187-1.980469 2.734375l-167.894531 103.085938-6.464844-10.53125 167.894532-103.089844c1.003906-.613282 2.171874-.796875 3.332031-.53125 1.140625.277344 2.113281.980468 2.726562 1.980468l1.855469 3.019532c.617188 1.003906.804688 2.191406.53125 3.332031zm0 0"/><path d="m279.191406 235.28125h-52.652344c-3.773437 0-6.828124 3.058594-6.828124 6.828125s3.054687 6.828125 6.828124 6.828125h52.652344c3.773438 0 6.828125-3.058594 6.828125-6.828125s-3.054687-6.828125-6.828125-6.828125zm0 0"/><path d="m201.257812 235.28125h-10.8125c-3.773437 0-6.824218 3.058594-6.824218 6.828125s3.050781 6.828125 6.824218 6.828125h10.8125c3.773438 0 6.828126-3.058594 6.828126-6.828125s-3.054688-6.828125-6.828126-6.828125zm0 0"/><path d="m90.046875 158.191406c1.332031 1.332032 3.078125 2 4.824219 2s3.496094-.667968 4.828125-2c2.664062-2.667968 2.664062-6.988281 0-9.65625l-20.480469-20.476562c-2.664062-2.667969-6.988281-2.667969-9.652344 0-2.664062 2.664062-2.664062 6.984375 0 9.652344zm0 0"/><path d="m60.742188 180.667969h27.304687c3.773437 0 6.828125-3.054688 6.828125-6.824219s-3.054688-6.828125-6.828125-6.828125h-27.304687c-3.773438 0-6.828126 3.058594-6.828126 6.828125s3.054688 6.824219 6.828126 6.824219zm0 0"/></symbol><symbol id="beam" viewBox="0 0 512 512">
<g>
	<g>
		<g>
			<path d="M512,59.733v-51.2c0-0.109-0.058-0.2-0.062-0.308c-0.016-1.014-0.216-2.016-0.588-2.959l-0.013-0.022
				c-0.032-0.078-0.093-0.135-0.127-0.211c-0.381-0.832-0.896-1.596-1.524-2.262c-0.207-0.207-0.424-0.403-0.651-0.587
				c-0.538-0.473-1.135-0.876-1.776-1.197c-0.264-0.143-0.535-0.272-0.813-0.385c-0.949-0.38-1.958-0.584-2.98-0.602H230.4
				c-2.263,0.001-4.433,0.9-6.033,2.5L2.503,224.364L2.49,224.38c-0.686,0.71-1.242,1.535-1.643,2.437
				c-0.392,0.978-0.641,2.007-0.741,3.056C0.094,230.057,0,230.213,0,230.4v51.2c0,4.713,3.82,8.533,8.533,8.533h64
				c21.198,0.023,38.377,17.202,38.4,38.4v9.267L2.503,446.231c-1.591,1.608-2.489,3.774-2.503,6.036v51.2
				C0,508.18,3.82,512,8.533,512H281.6c1.151,0,2.289-0.234,3.347-0.688c0.115-0.049,0.197-0.155,0.31-0.209
				c0.906-0.418,1.732-0.992,2.44-1.696l0.082-0.057L458.3,330.3l51.2-51.2c1.6-1.6,2.5-3.77,2.5-6.033v-51.2
				c0-0.109-0.058-0.2-0.062-0.308c-0.016-1.014-0.216-2.016-0.588-2.959l-0.013-0.022c-0.032-0.078-0.093-0.135-0.127-0.211
				c-0.838-1.745-2.226-3.166-3.95-4.046c-0.264-0.144-0.535-0.272-0.813-0.386c-0.949-0.38-1.958-0.584-2.98-0.602h-64
				c-0.727,0.048-1.444,0.193-2.133,0.431c-0.689-0.237-1.406-0.382-2.133-0.431c-19.906-0.061-36.451-15.352-38.076-35.192
				l112.37-112.369C511.088,64.165,511.987,61.997,512,59.733z M233.933,17.067h248.933l-204.8,204.8H29.133L233.933,17.067z
				 M110.933,361.933v43.4c-0.023,21.198-17.202,38.377-38.4,38.4h-43.4L110.933,361.933z M273.067,494.933h-256V460.8h55.467
				c30.619-0.035,55.431-24.848,55.467-55.467v-76.8c-0.035-30.619-24.848-55.431-55.467-55.467H17.067v-34.133h256v34.133H217.6
				c-30.619,0.035-55.431,24.848-55.467,55.467v76.8c0.035,30.619,24.848,55.431,55.467,55.467h55.467V494.933z M494.933,269.533
				l-48.85,48.85l-155.95,163.748v-26.453L458.3,279.1l36.634-36.633V269.533z M435.2,230.4c0.727-0.048,1.444-0.193,2.133-0.431
				c0.689,0.237,1.406,0.382,2.133,0.431h43.4l-36.783,36.783l-168.142,176.55H217.6c-21.198-0.023-38.377-17.202-38.4-38.4v-76.8
				c0.023-21.198,17.202-38.377,38.4-38.4h64c2.263-0.007,4.432-0.906,6.036-2.503l95.032-95.032
				C390.267,215.156,411.397,230.361,435.2,230.4z M494.933,56.2L382.236,168.897l-0.005,0.005L290.133,261v-27.067l204.8-204.8
				V56.2z"/>
			<path d="M216.606,401.241c-3.202-1.329-6.89-0.59-9.331,1.872c-1.559,1.636-2.442,3.799-2.475,6.059
				c0,4.713,3.821,8.533,8.533,8.533c4.713,0,8.533-3.82,8.533-8.533C221.887,405.704,219.808,402.57,216.606,401.241z"/>
			<path d="M249.481,365.14c-2.963-0.72-6.085,0.196-8.19,2.402h0l-8.533,8.942c-3.24,3.412-3.107,8.803,0.298,12.051
				s8.796,3.128,12.052-0.268l8.533-8.942c2.105-2.206,2.873-5.368,2.015-8.294C254.798,368.106,252.444,365.86,249.481,365.14z"/>
			<path d="M275.425,331.783l-8.533,8.942c-3.254,3.41-3.127,8.813,0.283,12.067s8.813,3.127,12.067-0.283l8.533-8.942
				c3.254-3.41,3.127-8.813-0.283-12.067C284.081,328.246,278.679,328.373,275.425,331.783z"/>
			<path d="M309.558,296.025l-8.533,8.942c-2.358,2.471-3.016,6.11-1.672,9.25c1.344,3.14,4.431,5.176,7.847,5.175
				c2.333,0.003,4.566-0.952,6.175-2.642l8.533-8.942c3.254-3.41,3.127-8.813-0.283-12.067
				C318.215,292.488,312.812,292.615,309.558,296.025z"/>
			<path d="M351.889,257.848c-2.968-0.719-6.095,0.204-8.198,2.419l-8.533,8.942c-2.358,2.471-3.016,6.11-1.672,9.25
				c1.344,3.14,4.431,5.176,7.847,5.175c2.333,0.003,4.566-0.952,6.175-2.642l8.533-8.942c2.114-2.205,2.888-5.371,2.031-8.302
				S354.858,258.567,351.889,257.848z"/>
			<path d="M372.194,231.428c-3.202,1.329-5.281,4.464-5.261,7.931c-0.04,2.249,0.856,4.413,2.475,5.975
				c1.596,1.629,3.778,2.55,6.059,2.558c2.28-0.008,4.463-0.93,6.059-2.558c1.617-1.563,2.513-3.727,2.475-5.975
				c-0.018-2.262-0.904-4.431-2.475-6.059C379.084,230.838,375.396,230.098,372.194,231.428z"/>
		</g>
	</g>
</g>
<g>
</g>
<g>
</g>
<g>
</g>
<g>
</g>
<g>
</g>
<g>
</g>
<g>
</g>
<g>
</g>
<g>
</g>
<g>
</g>
<g>
</g>
<g>
</g>
<g>
</g>
<g>
</g>
<g>
</g>
</symbol><symbol id="call-answer" viewBox="0 0 348.077 348.077">
<g>
	<g>
		<g>
			<path d="M340.273,275.083l-53.755-53.761c-10.707-10.664-28.438-10.34-39.518,0.744l-27.082,27.076
				c-1.711-0.943-3.482-1.928-5.344-2.973c-17.102-9.476-40.509-22.464-65.14-47.113c-24.704-24.701-37.704-48.144-47.209-65.257
				c-1.003-1.813-1.964-3.561-2.913-5.221l18.176-18.149l8.936-8.947c11.097-11.1,11.403-28.826,0.721-39.521L73.39,8.194
				C62.708-2.486,44.969-2.162,33.872,8.938l-15.15,15.237l0.414,0.411c-5.08,6.482-9.325,13.958-12.484,22.02
				C3.74,54.28,1.927,61.603,1.098,68.941C-6,127.785,20.89,181.564,93.866,254.541c100.875,100.868,182.167,93.248,185.674,92.876
				c7.638-0.913,14.958-2.738,22.397-5.627c7.992-3.122,15.463-7.361,21.941-12.43l0.331,0.294l15.348-15.029
				C350.631,303.527,350.95,285.795,340.273,275.083z"/>
		</g>
	</g>
</g>
<g>
</g>
<g>
</g>
<g>
</g>
<g>
</g>
<g>
</g>
<g>
</g>
<g>
</g>
<g>
</g>
<g>
</g>
<g>
</g>
<g>
</g>
<g>
</g>
<g>
</g>
<g>
</g>
<g>
</g>
</symbol><symbol id="car-service" viewBox="0 0 64 64"><g id="Car_Service-3" data-name="Car Service"><circle cx="13" cy="55" r="5"/><path d="m22 16a10.995 10.995 0 0 0 -3 21.574v-6.253a6.992 6.992 0 0 1 .671-12.915 1 1 0 0 1 1.329.944v4.65h2v-4.65a1 1 0 0 1 1.329-.944 6.992 6.992 0 0 1 .671 12.915v6.253a10.995 10.995 0 0 0 -3-21.574z"/><path d="m27 25a4.993 4.993 0 0 0 -2-4v4a1 1 0 0 1 -1 1h-4a1 1 0 0 1 -1-1v-4a4.995 4.995 0 0 0 1.329 8.706 1 1 0 0 1 .671.944v7.3c.33.03.662.051 1 .051s.67-.021 1-.051v-7.3a1 1 0 0 1 .671-.944 4.978 4.978 0 0 0 3.329-4.706z"/><circle cx="47" cy="55" r="5"/><circle cx="29" cy="55" r="5"/><path d="m60 41a3 3 0 0 0 -3-3h-15v12.11a6.987 6.987 0 0 1 11.92 3.89h3.08a3 3 0 0 0 3-3z"/><path d="m40 12h-36v30h36zm-18 28a13 13 0 1 1 13-13 13.015 13.015 0 0 1 -13 13z"/><path d="m35.92 54h4.08v-10h-36v10h2.08a6.991 6.991 0 0 1 13.84 0h2.16a6.991 6.991 0 0 1 13.84 0z"/><path d="m42 24v12h12v-9a3 3 0 0 0 -3-3z"/><path d="m44 4h6v6h-6z"/><path d="m28 4h6v6h-6z"/><path d="m42 10v-6h-6v6h5z"/><path d="m4 4h6v6h-6z"/><path d="m20 4h6v6h-6z"/><path d="m12 4h6v6h-6z"/></g></symbol><symbol id="clerk-with-tie" viewBox="0 0 218.581 218.581">
<path d="M162.184,81.401c-3.403,13.011-11.344,15.877-15.581,16.452c-2.61,5.218-8.347,15.882-14.086,21.24
	c-2.294,2.141-5.275,3.948-8.86,5.371c-4.577,1.816-9.411,2.737-14.366,2.737s-9.789-0.921-14.366-2.737
	c-3.584-1.422-6.566-3.229-8.86-5.371c-5.74-5.357-11.477-16.022-14.087-21.24c-4.236-0.575-12.177-3.44-15.58-16.452
	c-1.82-6.958-1.354-12.63,1.386-16.859c1.211-1.869,2.679-3.142,4.046-4.004c0.004-1.389,0.062-3.128,0.223-5.106
	c-2.461-3.42-5.807-10.799-1.663-22.743c4.38-12.627,14.283-14.577,19.063-14.746c1.616-3.004,4.669-7.269,10.213-11.19
	C95.82,2.398,103.856,0,112.293,0c10.382,0,20.829,3.654,30.211,10.567c15.211,11.208,13.908,36.07,13.535,40.584
	c0.552,3.784,0.705,7.066,0.712,9.386c1.367,0.862,2.835,2.135,4.046,4.004C163.537,68.771,164.003,74.442,162.184,81.401z
	 M206.67,178.29v35.291c0,2.761-2.239,5-5,5H16.911c-2.761,0-5-2.239-5-5V178.29c0-14.458,8.674-27.27,22.098-32.64l43.715-17.486
	c1.258-0.502,2.666-0.475,3.903,0.081c1.236,0.554,2.195,1.587,2.655,2.861l10.99,30.383l2.176-6.256l-3.462-8.463
	c-0.63-1.542-0.452-3.297,0.477-4.68c0.929-1.383,2.485-2.213,4.151-2.213h21.354c1.666,0,3.223,0.83,4.151,2.213
	c0.929,1.383,1.107,3.138,0.477,4.68l-3.462,8.463l2.176,6.256l10.99-30.383c0.46-1.274,1.419-2.307,2.655-2.861
	c1.237-0.555,2.646-0.582,3.903-0.081l43.715,17.486C197.997,151.02,206.67,163.832,206.67,178.29z M180.054,182.127
	c0-2.761-2.239-5-5-5h-33.57c-2.761,0-5,2.239-5,5v15.59c0,2.761,2.239,5,5,5h33.57c2.761,0,5-2.239,5-5V182.127z"/>
<g>
</g>
<g>
</g>
<g>
</g>
<g>
</g>
<g>
</g>
<g>
</g>
<g>
</g>
<g>
</g>
<g>
</g>
<g>
</g>
<g>
</g>
<g>
</g>
<g>
</g>
<g>
</g>
<g>
</g>
</symbol><symbol id="customer" viewBox="0 0 512.001 512.001">
<g>
	<g>
		<path d="M271.029,0c-33.091,0-61,27.909-61,61s27.909,61,61,61s60-27.909,60-61S304.12,0,271.029,0z"/>
	</g>
</g>
<g>
	<g>
		<path d="M337.621,122c-16.485,18.279-40.096,30-66.592,30c-26.496,0-51.107-11.721-67.592-30
			c-14.392,15.959-23.408,36.866-23.408,60v15c0,8.291,6.709,15,15,15h151c8.291,0,15-6.709,15-15v-15
			C361.029,158.866,352.013,137.959,337.621,122z"/>
	</g>
</g>
<g>
	<g>
		<path d="M144.946,460.404L68.505,307.149c-7.381-14.799-25.345-20.834-40.162-13.493l-19.979,9.897
			c-7.439,3.689-10.466,12.73-6.753,20.156l90,180c3.701,7.423,12.704,10.377,20.083,6.738l19.722-9.771
			C146.291,493.308,152.354,475.259,144.946,460.404z"/>
	</g>
</g>
<g>
	<g>
		<path d="M499.73,247.7c-12.301-9-29.401-7.2-39.6,3.9l-82,100.8c-5.7,6-16.5,9.6-22.2,9.6h-69.901c-8.401,0-15-6.599-15-15
			s6.599-15,15-15c20.09,0,42.332,0,60,0c16.5,0,30-13.5,30-30s-13.5-30-30-30c-70.446,0-3.25,0-78.6,0
			c-7.476,0-11.204-4.741-17.1-9.901c-23.209-20.885-57.949-30.947-93.119-22.795c-19.528,4.526-32.697,12.415-46.053,22.993
			l-0.445-0.361L89.016,281.03L174.28,452h25.248h146.501c28.2,0,55.201-13.5,72.001-36l87.999-126
			C515.929,276.799,513.229,257.601,499.73,247.7z"/>
	</g>
</g>
<g>
</g>
<g>
</g>
<g>
</g>
<g>
</g>
<g>
</g>
<g>
</g>
<g>
</g>
<g>
</g>
<g>
</g>
<g>
</g>
<g>
</g>
<g>
</g>
<g>
</g>
<g>
</g>
<g>
</g>
</symbol><symbol id="envelope" viewBox="0 0 511.626 511.626">
<g>
	<g>
		<path d="M49.106,178.729c6.472,4.567,25.981,18.131,58.528,40.685c32.548,22.554,57.482,39.92,74.803,52.099
			c1.903,1.335,5.946,4.237,12.131,8.71c6.186,4.476,11.326,8.093,15.416,10.852c4.093,2.758,9.041,5.852,14.849,9.277
			c5.806,3.422,11.279,5.996,16.418,7.7c5.14,1.718,9.898,2.569,14.275,2.569h0.287h0.288c4.377,0,9.137-0.852,14.277-2.569
			c5.137-1.704,10.615-4.281,16.416-7.7c5.804-3.429,10.752-6.52,14.845-9.277c4.093-2.759,9.229-6.376,15.417-10.852
			c6.184-4.477,10.232-7.375,12.135-8.71c17.508-12.179,62.051-43.11,133.615-92.79c13.894-9.703,25.502-21.411,34.827-35.116
			c9.332-13.699,13.993-28.07,13.993-43.105c0-12.564-4.523-23.319-13.565-32.264c-9.041-8.947-19.749-13.418-32.117-13.418H45.679
			c-14.655,0-25.933,4.948-33.832,14.844C3.949,79.562,0,91.934,0,106.779c0,11.991,5.236,24.985,15.703,38.974
			C26.169,159.743,37.307,170.736,49.106,178.729z"/>
		<path d="M483.072,209.275c-62.424,42.251-109.824,75.087-142.177,98.501c-10.849,7.991-19.65,14.229-26.409,18.699
			c-6.759,4.473-15.748,9.041-26.98,13.702c-11.228,4.668-21.692,6.995-31.401,6.995h-0.291h-0.287
			c-9.707,0-20.177-2.327-31.405-6.995c-11.228-4.661-20.223-9.229-26.98-13.702c-6.755-4.47-15.559-10.708-26.407-18.699
			c-25.697-18.842-72.995-51.68-141.896-98.501C17.987,202.047,8.375,193.762,0,184.437v226.685c0,12.57,4.471,23.319,13.418,32.265
			c8.945,8.949,19.701,13.422,32.264,13.422h420.266c12.56,0,23.315-4.473,32.261-13.422c8.949-8.949,13.418-19.694,13.418-32.265
			V184.437C503.441,193.569,493.927,201.854,483.072,209.275z"/>
	</g>
</g>
<g>
</g>
<g>
</g>
<g>
</g>
<g>
</g>
<g>
</g>
<g>
</g>
<g>
</g>
<g>
</g>
<g>
</g>
<g>
</g>
<g>
</g>
<g>
</g>
<g>
</g>
<g>
</g>
<g>
</g>
</symbol><symbol id="facebook-logo" viewBox="0 0 96.124 96.123">
<g>
	<path d="M72.089,0.02L59.624,0C45.62,0,36.57,9.285,36.57,23.656v10.907H24.037c-1.083,0-1.96,0.878-1.96,1.961v15.803
		c0,1.083,0.878,1.96,1.96,1.96h12.533v39.876c0,1.083,0.877,1.96,1.96,1.96h16.352c1.083,0,1.96-0.878,1.96-1.96V54.287h14.654
		c1.083,0,1.96-0.877,1.96-1.96l0.006-15.803c0-0.52-0.207-1.018-0.574-1.386c-0.367-0.368-0.867-0.575-1.387-0.575H56.842v-9.246
		c0-4.444,1.059-6.7,6.848-6.7l8.397-0.003c1.082,0,1.959-0.878,1.959-1.96V1.98C74.046,0.899,73.17,0.022,72.089,0.02z"/>
</g>
<g>
</g>
<g>
</g>
<g>
</g>
<g>
</g>
<g>
</g>
<g>
</g>
<g>
</g>
<g>
</g>
<g>
</g>
<g>
</g>
<g>
</g>
<g>
</g>
<g>
</g>
<g>
</g>
<g>
</g>
</symbol><symbol id="forklift" viewBox="0 0 512.001 512.001"><path d="m154.361 242.556h130.244l-33.531-33.531-15.292 15.292-21.213-21.213 51.797-51.796 21.213 21.213-15.292 15.292 53.53 53.53v-44.046c0-70.65-57.479-128.129-128.129-128.129h-140.355v113.32h71.099z"/><path d="m419.803 194.963h64.542v64.542h-64.542z"/><path d="m419.803 289.505h64.542v64.544h-64.542z"/><path d="m274.994 412.543c0-16.703-13.588-30.291-30.291-30.291s-30.291 13.588-30.291 30.291c0 16.702 13.588 30.291 30.291 30.291s30.291-13.589 30.291-30.291z"/><path d="m111.406 412.543c0-16.703-13.588-30.291-30.291-30.291s-30.291 13.588-30.291 30.291c0 16.702 13.588 30.291 30.291 30.291s30.291-13.589 30.291-30.291z"/><path d="m389.801 384.051v-262.919h-30v211.775h-33.984v-60.351h-191.181l-25.93-60.068-108.706.002v201.562h20.862c-.012-.503-.038-1.002-.038-1.508 0-33.245 27.046-60.291 60.291-60.291s60.291 27.046 60.291 60.291c0 .506-.026 1.005-.038 1.508h43.082c-.012-.503-.038-1.002-.038-1.508 0-33.245 27.046-60.291 60.291-60.291s60.291 27.046 60.291 60.291c0 .506-.026 1.005-.038 1.508h20.862v-51.144h33.984v51.144h152.2v-30h-122.201z"/></symbol><symbol id="instagram" viewBox="0 0 512 512"><path d="m437 0h-362c-41.351562 0-75 33.648438-75 75v362c0 41.351562 33.648438 75 75 75h362c41.351562 0 75-33.648438 75-75v-362c0-41.351562-33.648438-75-75-75zm-180 390c-74.441406 0-135-60.558594-135-135s60.558594-135 135-135 135 60.558594 135 135-60.558594 135-135 135zm150-240c-24.8125 0-45-20.1875-45-45s20.1875-45 45-45 45 20.1875 45 45-20.1875 45-45 45zm0 0"/><path d="m407 90c-8.277344 0-15 6.722656-15 15s6.722656 15 15 15 15-6.722656 15-15-6.722656-15-15-15zm0 0"/><path d="m257 150c-57.890625 0-105 47.109375-105 105s47.109375 105 105 105 105-47.109375 105-105-47.109375-105-105-105zm0 0"/></symbol><symbol id="maintenance" viewBox="0 0 512.256 512.256"><path d="m512.256 315.484v-118.713h-52.036c-4.334-14.931-10.3-29.312-17.824-42.969l36.813-36.813-83.942-83.942-36.813 36.813c-13.657-7.524-28.038-13.489-42.97-17.823v-52.037h-118.713v52.037c-14.931 4.333-29.312 10.299-42.969 17.823l-36.813-36.813-83.942 83.942 36.813 36.813c-7.524 13.657-13.489 28.038-17.823 42.969h-52.037v118.713h52.037c4.334 14.931 10.299 29.313 17.823 42.969l-36.813 36.813 83.942 83.942 36.813-36.813c13.657 7.524 28.038 13.489 42.969 17.823v52.037h118.713v-52.037c14.932-4.334 29.313-10.299 42.97-17.823l36.813 36.813 83.942-83.942-36.813-36.813c7.524-13.657 13.49-28.038 17.824-42.969zm-256.128 86.614c-80.488 0-145.97-65.482-145.97-145.97s65.482-145.97 145.97-145.97 145.97 65.482 145.97 145.97-65.482 145.97-145.97 145.97z"/><path d="m256.128 140.158c-63.946 0-115.97 52.024-115.97 115.97s52.024 115.97 115.97 115.97 115.97-52.024 115.97-115.97-52.024-115.97-115.97-115.97zm79.143 98.071c-8.442 8.442-19.532 12.664-30.622 12.664-6.194 0-12.387-1.32-18.119-3.953l-39.591 39.592c7.349 15.997 4.448 35.584-8.71 48.741l-11.098 11.098-21.213-21.214 11.098-11.097c2.513-2.513 3.897-5.854 3.897-9.408s-1.384-6.896-3.897-9.409c-2.514-2.513-5.855-3.897-9.41-3.897-3.554 0-6.896 1.384-9.409 3.897l-11.097 11.098-21.214-21.213 11.097-11.098c13.159-13.157 32.746-16.059 48.742-8.71l39.591-39.591c-7.349-15.997-4.447-35.584 8.71-48.741l11.098-11.098 21.213 21.214-11.098 11.097c-5.188 5.188-5.188 13.629 0 18.817 5.189 5.188 13.631 5.188 18.818 0l11.098-11.097 21.213 21.213z"/></symbol><symbol id="placeholder" viewBox="0 0 54.757 54.757">
<path d="M40.94,5.617C37.318,1.995,32.502,0,27.38,0c-5.123,0-9.938,1.995-13.56,5.617c-6.703,6.702-7.536,19.312-1.804,26.952
	L27.38,54.757L42.721,32.6C48.476,24.929,47.643,12.319,40.94,5.617z M27.557,26c-3.859,0-7-3.141-7-7s3.141-7,7-7s7,3.141,7,7
	S31.416,26,27.557,26z"/>
<g>
</g>
<g>
</g>
<g>
</g>
<g>
</g>
<g>
</g>
<g>
</g>
<g>
</g>
<g>
</g>
<g>
</g>
<g>
</g>
<g>
</g>
<g>
</g>
<g>
</g>
<g>
</g>
<g>
</g>
</symbol><symbol id="product" viewBox="-33 0 512 512.002"><path d="m136.289062 271h180c8.292969 0 15-6.710938 15-15v-181c0-8.289062-6.707031-15-15-15h-45v-15c0-24.8125-20.1875-45-45-45s-45 20.1875-45 45v15h-45c-8.289062 0-15 6.710938-15 15v181c0 8.289062 6.710938 15 15 15zm75-226c0-8.277344 6.738282-15 15-15 8.261719 0 15 6.722656 15 15v15h-30zm0 0"/><path d="m444.816406 248.234375c-2.695312-4.480469-7.589844-7.234375-12.832031-7.234375-26.429687 0-50.675781 14.667969-62.945313 38.078125l-46.011718 87.8125c-7.820313 14.882813-23.085938 24.109375-39.871094 24.109375h-101.867188c-8.289062 0-15-6.710938-15-15s6.710938-15 15-15h101.863282c5.597656 0 10.695312-3.074219 13.304687-8.042969 2.597657-4.960937 10.445313-19.941406 17.191407-32.816406 2.125-4.054687 1.976562-8.925781-.394532-12.84375-2.375-3.914063-6.621094-6.296875-11.199218-6.296875h-155.921876c-20.039062 0-38.847656 7.808594-53.027343 21.972656l-88.710938 88.710938c-5.859375 5.859375-5.859375 15.351562 0 21.210937l75 74.710938c2.929688 2.929687 6.769531 4.398437 10.605469 4.398437s7.675781-1.46875 10.605469-4.398437l56.894531-56.605469h125.652344c39.171875 0 74.824218-21.5625 93.019531-56.265625l69.082031-131.761719c2.460938-4.644531 2.285156-10.238281-.4375-14.738281zm0 0"/></symbol><symbol id="shield" viewBox="-38 0 512 512.00142">
<g id="surface1">
<path d="M 217.996094 158.457031 C 164.203125 158.457031 120.441406 202.21875 120.441406 256.007812 C 120.441406 309.800781 164.203125 353.5625 217.996094 353.5625 C 271.785156 353.5625 315.546875 309.800781 315.546875 256.007812 C 315.546875 202.21875 271.785156 158.457031 217.996094 158.457031 Z M 275.914062 237.636719 L 206.027344 307.523438 C 203.09375 310.457031 199.246094 311.925781 195.402344 311.925781 C 191.558594 311.925781 187.714844 310.460938 184.78125 307.523438 L 158.074219 280.816406 C 152.207031 274.953125 152.207031 265.441406 158.074219 259.574219 C 163.9375 253.707031 173.449219 253.707031 179.316406 259.574219 L 195.402344 275.660156 L 254.671875 216.394531 C 260.535156 210.527344 270.046875 210.527344 275.914062 216.394531 C 281.78125 222.257812 281.78125 231.769531 275.914062 237.636719 Z M 275.914062 237.636719 " style=" stroke:none;fill-rule:nonzero;fill:rgb(0%,0%,0%);fill-opacity:1;"/>
<path d="M 435.488281 138.917969 L 435.472656 138.519531 C 435.25 133.601562 435.101562 128.398438 435.011719 122.609375 C 434.59375 94.378906 412.152344 71.027344 383.917969 69.449219 C 325.050781 66.164062 279.511719 46.96875 240.601562 9.042969 L 240.269531 8.726562 C 227.578125 -2.910156 208.433594 -2.910156 195.738281 8.726562 L 195.40625 9.042969 C 156.496094 46.96875 110.957031 66.164062 52.089844 69.453125 C 23.859375 71.027344 1.414062 94.378906 0.996094 122.613281 C 0.910156 128.363281 0.757812 133.566406 0.535156 138.519531 L 0.511719 139.445312 C -0.632812 199.472656 -2.054688 274.179688 22.9375 341.988281 C 36.679688 379.277344 57.492188 411.691406 84.792969 438.335938 C 115.886719 468.679688 156.613281 492.769531 205.839844 509.933594 C 207.441406 510.492188 209.105469 510.945312 210.800781 511.285156 C 213.191406 511.761719 215.597656 512 218.003906 512 C 220.410156 512 222.820312 511.761719 225.207031 511.285156 C 226.902344 510.945312 228.578125 510.488281 230.1875 509.925781 C 279.355469 492.730469 320.039062 468.628906 351.105469 438.289062 C 378.394531 411.636719 399.207031 379.214844 412.960938 341.917969 C 438.046875 273.90625 436.628906 199.058594 435.488281 138.917969 Z M 217.996094 383.605469 C 147.636719 383.605469 90.398438 326.367188 90.398438 256.007812 C 90.398438 185.648438 147.636719 128.410156 217.996094 128.410156 C 288.351562 128.410156 345.59375 185.648438 345.59375 256.007812 C 345.59375 326.367188 288.351562 383.605469 217.996094 383.605469 Z M 217.996094 383.605469 " style=" stroke:none;fill-rule:nonzero;fill:rgb(0%,0%,0%);fill-opacity:1;"/>
</g>
</symbol><symbol id="smartphone-call" viewBox="0 0 35 35">
<g>
	<path d="M25.302,0H9.698c-1.3,0-2.364,1.063-2.364,2.364v30.271C7.334,33.936,8.398,35,9.698,35h15.604
		c1.3,0,2.364-1.062,2.364-2.364V2.364C27.666,1.063,26.602,0,25.302,0z M15.004,1.704h4.992c0.158,0,0.286,0.128,0.286,0.287
		c0,0.158-0.128,0.286-0.286,0.286h-4.992c-0.158,0-0.286-0.128-0.286-0.286C14.718,1.832,14.846,1.704,15.004,1.704z M17.5,33.818
		c-0.653,0-1.182-0.529-1.182-1.183s0.529-1.182,1.182-1.182s1.182,0.528,1.182,1.182S18.153,33.818,17.5,33.818z M26.021,30.625
		H8.979V3.749h17.042V30.625z"/>
</g>
<g>
</g>
<g>
</g>
<g>
</g>
<g>
</g>
<g>
</g>
<g>
</g>
<g>
</g>
<g>
</g>
<g>
</g>
<g>
</g>
<g>
</g>
<g>
</g>
<g>
</g>
<g>
</g>
<g>
</g>
</symbol><symbol id="staff-people" viewBox="0 0 44.75 44.75">
<g>
	<g id="_x32__137_">
		<g>
			<path d="M33.285,19.991c-0.003-0.039-0.004-0.078-0.008-0.116c-0.033-1.48-0.291-2.676-1.455-3.169
				c-1.23-0.521-2.314-0.528-3.109-0.219c-0.052,0.021-0.188,0.2-0.24,0.233c-0.053,0.033-0.332-0.06-0.437-0.035
				c-1.745,0.249-2.321,1.893-2.194,3.175c0.417,0.728,0.549,1.646,0.588,2.595c0.65,1.134,1.766,2.005,3.098,2.005
				c1.779,0,3.188-1.502,3.627-3.137c0.168-0.019,0.307-0.146,0.32-0.32l0.055-0.646C33.544,20.188,33.438,20.043,33.285,19.991z
				 M29.525,23.96c-1.836,0-3.209-1.945-3.209-3.686c0-0.082,0.007-0.162,0.013-0.242c0.765-0.28,2.235-0.865,2.396-1.173
				c0.668,0.694,3.028,1.084,4.065,1.215c0.005,0.066,0.011,0.133,0.011,0.2C32.799,21.979,31.369,23.96,29.525,23.96z"/>
			<path d="M9.641,20.342l0.055,0.646c0.016,0.182,0.166,0.313,0.344,0.323c0.429,1.639,1.814,3.148,3.569,3.148
				c1.377,0,2.525-0.902,3.181-2.065c-0.014-0.813,0.2-1.648,0.664-2.339c-0.029-0.021-0.05-0.052-0.085-0.064
				c-0.003-0.039-0.004-0.078-0.008-0.116c-0.033-1.48-0.291-2.676-1.455-3.169c-1.23-0.521-2.314-0.528-3.109-0.219
				c-0.052,0.021-0.187,0.2-0.24,0.233c-0.053,0.033-0.332-0.06-0.437-0.035c-1.745,0.249-2.321,1.894-2.194,3.176
				c-0.004,0.036-0.006,0.072-0.009,0.108C9.746,20.01,9.625,20.165,9.641,20.342z M10.411,20.033
				c0.765-0.28,2.235-0.865,2.395-1.173c0.668,0.694,3.029,1.084,4.066,1.215c0.005,0.066,0.011,0.133,0.011,0.2
				c0,1.704-1.43,3.686-3.273,3.686c-1.837,0-3.209-1.945-3.209-3.686C10.399,20.192,10.405,20.112,10.411,20.033z"/>
			<path d="M19.021,8.686c0.261,0.997,1.103,1.915,2.171,1.915c1.083,0,1.938-0.914,2.207-1.908
				c0.103-0.012,0.187-0.089,0.195-0.195l0.033-0.393c0.01-0.103-0.057-0.191-0.148-0.223c-0.002-0.023-0.002-0.047-0.004-0.07
				c-0.021-0.9-0.178-1.627-0.886-1.928c-0.749-0.317-1.408-0.322-1.892-0.133c-0.032,0.013-0.114,0.122-0.146,0.142
				c-0.032,0.02-0.202-0.036-0.266-0.021c-1.061,0.151-1.411,1.151-1.334,1.932c-0.003,0.021-0.004,0.044-0.006,0.066
				c-0.103,0.025-0.176,0.119-0.167,0.227l0.034,0.393C18.821,8.601,18.913,8.681,19.021,8.686z M19.247,7.908
				c0.465-0.17,1.359-0.526,1.457-0.714c0.406,0.422,1.842,0.66,2.473,0.739c0.003,0.041,0.007,0.081,0.007,0.122
				c0,1.036-0.871,2.241-1.992,2.241c-1.118,0-1.952-1.183-1.952-2.241C19.24,8.005,19.243,7.957,19.247,7.908z"/>
			<path d="M14.169,8.614c-1.474,0.21-1.96,1.599-1.853,2.683c-0.003,0.03-0.005,0.061-0.008,0.091
				c-0.143,0.035-0.245,0.165-0.231,0.315l0.047,0.546c0.013,0.154,0.14,0.265,0.29,0.272c0.363,1.384,1.532,2.659,3.015,2.659
				c1.503,0,2.692-1.269,3.064-2.649c0.141-0.016,0.258-0.124,0.271-0.271l0.046-0.545c0.012-0.143-0.078-0.265-0.206-0.31
				c-0.003-0.032-0.003-0.065-0.007-0.098c-0.028-1.25-0.246-2.26-1.229-2.677c-1.039-0.44-1.955-0.446-2.626-0.185
				c-0.044,0.018-0.158,0.169-0.203,0.197C14.494,8.67,14.259,8.592,14.169,8.614z M14.75,10.451
				c0.564,0.586,2.558,0.916,3.434,1.026c0.004,0.056,0.009,0.112,0.009,0.169c0,1.439-1.208,3.112-2.765,3.112
				c-1.552,0-2.71-1.643-2.71-3.112c0-0.069,0.005-0.137,0.01-0.204C13.374,11.206,14.615,10.71,14.75,10.451z"/>
			<path d="M23.964,12.521c0.363,1.384,1.532,2.659,3.015,2.659c1.504,0,2.692-1.269,3.064-2.649
				c0.098-0.011,0.168-0.075,0.216-0.156l0.074-0.008c0.017-0.002,0.047-0.013,0.05-0.043l0.047-0.544
				c0.002-0.037-0.035-0.051-0.039-0.052l-0.031-0.011c0.012-0.143-0.078-0.265-0.207-0.31c-0.002-0.032-0.002-0.065-0.006-0.098
				c-0.028-1.25-0.246-2.26-1.229-2.677c-1.039-0.44-1.955-0.446-2.626-0.185c-0.044,0.018-0.158,0.169-0.203,0.197
				c-0.044,0.027-0.279-0.05-0.369-0.029c-1.474,0.21-1.96,1.599-1.853,2.683c-0.003,0.03-0.005,0.061-0.009,0.091
				c-0.143,0.035-0.244,0.165-0.23,0.315l0.047,0.546C23.688,12.402,23.814,12.515,23.964,12.521z M24.277,11.441
				c0.646-0.236,1.888-0.731,2.022-0.991c0.563,0.586,2.558,0.916,3.435,1.026c0.004,0.056,0.009,0.112,0.009,0.169
				c0,1.439-1.208,3.112-2.765,3.112c-1.553,0-2.711-1.643-2.711-3.112C24.27,11.577,24.273,11.508,24.277,11.441z"/>
			<path d="M18.695,12.731c-0.173,0.561-0.49,1.111-0.907,1.572l3.395,0.002v-0.006l3.467-0.002
				c-0.407-0.459-0.717-1.008-0.887-1.567c-0.187-0.076-0.32-0.249-0.338-0.459l-0.047-0.546c-0.018-0.201,0.076-0.388,0.236-0.498
				c-0.018-0.192-0.01-0.39,0.011-0.588c-0.202-0.208-0.438-0.355-0.723-0.396c-0.056-0.009-0.111,0.004-0.147,0.019l-0.894,1.209
				l-0.679-0.541l-0.004,0.003v0.003l-0.001-0.001L20.5,11.477l-0.894-1.209c-0.036-0.014-0.091-0.027-0.146-0.018
				c-0.256,0.036-0.471,0.161-0.66,0.335c0.024,0.223,0.04,0.448,0.046,0.671c0.146,0.112,0.229,0.292,0.213,0.481l-0.046,0.544
				C18.995,12.483,18.872,12.65,18.695,12.731z"/>
			<path d="M33.085,21.764c-0.262,0.669-0.694,1.294-1.246,1.756C32.398,23.052,32.83,22.424,33.085,21.764z"/>
			<path d="M12.402,16.458c0.019,0.003,0.037,0.007,0.054,0.01c0.007-0.008,0.014-0.016,0.022-0.025
				c0.089-0.098,0.147-0.159,0.226-0.19c0.45-0.175,0.959-0.242,1.5-0.212l-0.978-1.323c-0.05-0.02-0.126-0.037-0.203-0.025
				c-0.917,0.129-1.495,1.018-1.862,2.051c0.271-0.142,0.569-0.257,0.922-0.308l0.081-0.007
				C12.23,16.431,12.319,16.444,12.402,16.458z"/>
			<path d="M16.695,23.382l0.068,0.795c0.019,0.225,0.204,0.388,0.423,0.398c0.528,2.016,2.232,3.875,4.392,3.875
				c2.191,0,3.923-1.85,4.464-3.861c0.206-0.023,0.376-0.18,0.396-0.395l0.067-0.794c0.019-0.207-0.112-0.386-0.301-0.45
				c-0.004-0.047-0.005-0.096-0.011-0.143c-0.039-1.821-0.356-3.293-1.791-3.9c-1.513-0.641-2.847-0.65-3.825-0.27
				c-0.064,0.025-0.23,0.246-0.295,0.287c-0.065,0.04-0.408-0.073-0.538-0.042c-2.147,0.306-2.856,2.33-2.7,3.908
				c-0.004,0.044-0.008,0.088-0.011,0.133C16.824,22.974,16.675,23.163,16.695,23.382z M17.643,23.001
				c0.94-0.344,2.75-1.064,2.946-1.443c0.823,0.854,3.728,1.334,5.003,1.494c0.006,0.082,0.014,0.164,0.014,0.246
				c0,2.098-1.76,4.535-4.028,4.535c-2.261,0-3.949-2.394-3.949-4.535C17.628,23.198,17.636,23.1,17.643,23.001z"/>
			<path d="M16.359,16.39l-0.942-0.751l-0.006,0.005v0.005l-0.001-0.001l-0.604,0.481c0.392,0.073,0.791,0.176,1.196,0.348
				c1.344,0.569,1.57,1.998,1.605,3.335c0.476-0.594,1.158-1.043,2.1-1.178l0.091-0.008c0.079,0,0.185,0.017,0.284,0.035
				c0.018,0.003,0.034,0.006,0.051,0.009c-0.245-1.585-0.849-3.776-2.331-3.985c-0.078-0.012-0.154,0.005-0.204,0.026L16.359,16.39z
				"/>
			<path d="M29.354,14.685c-0.078-0.012-0.153,0.005-0.203,0.026l-1.241,1.68l-0.942-0.751l-0.006,0.005v0.005l-0.001-0.001
				l-0.942,0.751l-1.242-1.68c-0.049-0.02-0.125-0.037-0.202-0.025c-1.321,0.186-1.946,1.949-2.239,3.453
				c0.691,0.042,1.425,0.217,2.166,0.53c0.463,0.196,0.812,0.474,1.083,0.808c-0.009-1.34,0.704-2.802,2.417-3.047l0.081-0.007
				c0.065,0,0.155,0.014,0.239,0.029c0.019,0.003,0.037,0.007,0.054,0.01c0.007-0.008,0.015-0.016,0.022-0.025
				c0.088-0.098,0.146-0.159,0.226-0.19c0.683-0.266,1.503-0.29,2.364-0.083C30.619,15.395,30.098,14.79,29.354,14.685z"/>
			<path d="M21.559,35.933l7.115-0.006c0,0-0.217-7.719-3.635-8.2c-0.113-0.019-0.225,0.008-0.296,0.037l-1.809,2.446l-1.373-1.094
				l-0.008,0.006v0.008l-0.002-0.002l-1.373,1.095l-1.809-2.448c-0.072-0.029-0.183-0.054-0.296-0.037
				c-3.418,0.48-3.635,8.201-3.635,8.201l7.12,0.004L21.559,35.933L21.559,35.933z"/>
			<path d="M29.51,30.542l5.782-0.004c0,0-0.176-6.273-2.954-6.666c-0.092-0.014-0.182,0.006-0.24,0.03l-1.471,1.989l-1.115-0.891
				l-0.007,0.006v0.007l-0.001-0.002l-1.115,0.89l-1.47-1.988c-0.05-0.021-0.128-0.029-0.205-0.025l-0.028,0.328
				c-0.021,0.268-0.195,0.488-0.441,0.58c-0.352,1.178-1.133,2.338-2.197,3.086c-0.037,0.183-0.068,0.361-0.098,0.535l0.635-0.858
				l0.064-0.026c0.072-0.029,0.244-0.082,0.429-0.053c1.424,0.201,2.317,1.527,2.883,3.07l1.55,0.002V30.542z"/>
			<path d="M7.807,30.548l5.786,0.002v-0.01h1.567c0.567-1.535,1.459-2.851,2.878-3.049c0.168-0.025,0.352,0.022,0.423,0.051
				l0.066,0.026l0.622,0.841c-0.033-0.201-0.07-0.406-0.114-0.617c-0.989-0.75-1.717-1.865-2.05-3.002
				c-0.26-0.084-0.448-0.312-0.472-0.592l-0.026-0.308c-0.023-0.004-0.042-0.015-0.066-0.019c-0.092-0.015-0.182,0.006-0.241,0.029
				l-1.47,1.989l-1.115-0.89l-0.007,0.006v0.006l-0.001-0.002l-1.115,0.89l-1.47-1.989c-0.059-0.022-0.149-0.043-0.241-0.029
				C7.983,24.273,7.807,30.548,7.807,30.548z"/>
			<path d="M37.445,4.883l2.582-3.898l-9.471,1.197l2.92,8.694l2.287-3.452c3.682,3.526,5.986,8.475,5.986,13.964
				c0,10.685-8.691,19.375-19.375,19.375C11.691,40.764,3,32.073,3,21.389C3,13.463,7.787,6.645,14.617,3.646L12.36,1.39
				C5.039,5.072,0,12.65,0,21.39c0,12.337,10.038,22.375,22.375,22.375S44.75,33.727,44.75,21.39
				C44.75,14.855,41.927,8.978,37.445,4.883z"/>
		</g>
	</g>
</g>
<g>
</g>
<g>
</g>
<g>
</g>
<g>
</g>
<g>
</g>
<g>
</g>
<g>
</g>
<g>
</g>
<g>
</g>
<g>
</g>
<g>
</g>
<g>
</g>
<g>
</g>
<g>
</g>
<g>
</g>
</symbol></svg>