<svg xmlns="http://www.w3.org/2000/svg" xmlns:xlink="http://www.w3.org/1999/xlink"><symbol id="call-answer" viewBox="0 0 348.077 348.077">
<g>
	<g>
		<g>
			<path d="M340.273,275.083l-53.755-53.761c-10.707-10.664-28.438-10.34-39.518,0.744l-27.082,27.076
				c-1.711-0.943-3.482-1.928-5.344-2.973c-17.102-9.476-40.509-22.464-65.14-47.113c-24.704-24.701-37.704-48.144-47.209-65.257
				c-1.003-1.813-1.964-3.561-2.913-5.221l18.176-18.149l8.936-8.947c11.097-11.1,11.403-28.826,0.721-39.521L73.39,8.194
				C62.708-2.486,44.969-2.162,33.872,8.938l-15.15,15.237l0.414,0.411c-5.08,6.482-9.325,13.958-12.484,22.02
				C3.74,54.28,1.927,61.603,1.098,68.941C-6,127.785,20.89,181.564,93.866,254.541c100.875,100.868,182.167,93.248,185.674,92.876
				c7.638-0.913,14.958-2.738,22.397-5.627c7.992-3.122,15.463-7.361,21.941-12.43l0.331,0.294l15.348-15.029
				C350.631,303.527,350.95,285.795,340.273,275.083z"/>
		</g>
	</g>
</g>
<g>
</g>
<g>
</g>
<g>
</g>
<g>
</g>
<g>
</g>
<g>
</g>
<g>
</g>
<g>
</g>
<g>
</g>
<g>
</g>
<g>
</g>
<g>
</g>
<g>
</g>
<g>
</g>
<g>
</g>
</symbol><symbol id="clerk-with-tie" viewBox="0 0 218.581 218.581">
<path d="M162.184,81.401c-3.403,13.011-11.344,15.877-15.581,16.452c-2.61,5.218-8.347,15.882-14.086,21.24
	c-2.294,2.141-5.275,3.948-8.86,5.371c-4.577,1.816-9.411,2.737-14.366,2.737s-9.789-0.921-14.366-2.737
	c-3.584-1.422-6.566-3.229-8.86-5.371c-5.74-5.357-11.477-16.022-14.087-21.24c-4.236-0.575-12.177-3.44-15.58-16.452
	c-1.82-6.958-1.354-12.63,1.386-16.859c1.211-1.869,2.679-3.142,4.046-4.004c0.004-1.389,0.062-3.128,0.223-5.106
	c-2.461-3.42-5.807-10.799-1.663-22.743c4.38-12.627,14.283-14.577,19.063-14.746c1.616-3.004,4.669-7.269,10.213-11.19
	C95.82,2.398,103.856,0,112.293,0c10.382,0,20.829,3.654,30.211,10.567c15.211,11.208,13.908,36.07,13.535,40.584
	c0.552,3.784,0.705,7.066,0.712,9.386c1.367,0.862,2.835,2.135,4.046,4.004C163.537,68.771,164.003,74.442,162.184,81.401z
	 M206.67,178.29v35.291c0,2.761-2.239,5-5,5H16.911c-2.761,0-5-2.239-5-5V178.29c0-14.458,8.674-27.27,22.098-32.64l43.715-17.486
	c1.258-0.502,2.666-0.475,3.903,0.081c1.236,0.554,2.195,1.587,2.655,2.861l10.99,30.383l2.176-6.256l-3.462-8.463
	c-0.63-1.542-0.452-3.297,0.477-4.68c0.929-1.383,2.485-2.213,4.151-2.213h21.354c1.666,0,3.223,0.83,4.151,2.213
	c0.929,1.383,1.107,3.138,0.477,4.68l-3.462,8.463l2.176,6.256l10.99-30.383c0.46-1.274,1.419-2.307,2.655-2.861
	c1.237-0.555,2.646-0.582,3.903-0.081l43.715,17.486C197.997,151.02,206.67,163.832,206.67,178.29z M180.054,182.127
	c0-2.761-2.239-5-5-5h-33.57c-2.761,0-5,2.239-5,5v15.59c0,2.761,2.239,5,5,5h33.57c2.761,0,5-2.239,5-5V182.127z"/>
<g>
</g>
<g>
</g>
<g>
</g>
<g>
</g>
<g>
</g>
<g>
</g>
<g>
</g>
<g>
</g>
<g>
</g>
<g>
</g>
<g>
</g>
<g>
</g>
<g>
</g>
<g>
</g>
<g>
</g>
</symbol><symbol id="customer" viewBox="0 0 512.001 512.001">
<g>
	<g>
		<path d="M271.029,0c-33.091,0-61,27.909-61,61s27.909,61,61,61s60-27.909,60-61S304.12,0,271.029,0z"/>
	</g>
</g>
<g>
	<g>
		<path d="M337.621,122c-16.485,18.279-40.096,30-66.592,30c-26.496,0-51.107-11.721-67.592-30
			c-14.392,15.959-23.408,36.866-23.408,60v15c0,8.291,6.709,15,15,15h151c8.291,0,15-6.709,15-15v-15
			C361.029,158.866,352.013,137.959,337.621,122z"/>
	</g>
</g>
<g>
	<g>
		<path d="M144.946,460.404L68.505,307.149c-7.381-14.799-25.345-20.834-40.162-13.493l-19.979,9.897
			c-7.439,3.689-10.466,12.73-6.753,20.156l90,180c3.701,7.423,12.704,10.377,20.083,6.738l19.722-9.771
			C146.291,493.308,152.354,475.259,144.946,460.404z"/>
	</g>
</g>
<g>
	<g>
		<path d="M499.73,247.7c-12.301-9-29.401-7.2-39.6,3.9l-82,100.8c-5.7,6-16.5,9.6-22.2,9.6h-69.901c-8.401,0-15-6.599-15-15
			s6.599-15,15-15c20.09,0,42.332,0,60,0c16.5,0,30-13.5,30-30s-13.5-30-30-30c-70.446,0-3.25,0-78.6,0
			c-7.476,0-11.204-4.741-17.1-9.901c-23.209-20.885-57.949-30.947-93.119-22.795c-19.528,4.526-32.697,12.415-46.053,22.993
			l-0.445-0.361L89.016,281.03L174.28,452h25.248h146.501c28.2,0,55.201-13.5,72.001-36l87.999-126
			C515.929,276.799,513.229,257.601,499.73,247.7z"/>
	</g>
</g>
<g>
</g>
<g>
</g>
<g>
</g>
<g>
</g>
<g>
</g>
<g>
</g>
<g>
</g>
<g>
</g>
<g>
</g>
<g>
</g>
<g>
</g>
<g>
</g>
<g>
</g>
<g>
</g>
<g>
</g>
</symbol><symbol id="facebook-logo" viewBox="0 0 96.124 96.123">
<g>
	<path d="M72.089,0.02L59.624,0C45.62,0,36.57,9.285,36.57,23.656v10.907H24.037c-1.083,0-1.96,0.878-1.96,1.961v15.803
		c0,1.083,0.878,1.96,1.96,1.96h12.533v39.876c0,1.083,0.877,1.96,1.96,1.96h16.352c1.083,0,1.96-0.878,1.96-1.96V54.287h14.654
		c1.083,0,1.96-0.877,1.96-1.96l0.006-15.803c0-0.52-0.207-1.018-0.574-1.386c-0.367-0.368-0.867-0.575-1.387-0.575H56.842v-9.246
		c0-4.444,1.059-6.7,6.848-6.7l8.397-0.003c1.082,0,1.959-0.878,1.959-1.96V1.98C74.046,0.899,73.17,0.022,72.089,0.02z"/>
</g>
<g>
</g>
<g>
</g>
<g>
</g>
<g>
</g>
<g>
</g>
<g>
</g>
<g>
</g>
<g>
</g>
<g>
</g>
<g>
</g>
<g>
</g>
<g>
</g>
<g>
</g>
<g>
</g>
<g>
</g>
</symbol><symbol id="instagram" viewBox="0 0 512 512"><path d="m437 0h-362c-41.351562 0-75 33.648438-75 75v362c0 41.351562 33.648438 75 75 75h362c41.351562 0 75-33.648438 75-75v-362c0-41.351562-33.648438-75-75-75zm-180 390c-74.441406 0-135-60.558594-135-135s60.558594-135 135-135 135 60.558594 135 135-60.558594 135-135 135zm150-240c-24.8125 0-45-20.1875-45-45s20.1875-45 45-45 45 20.1875 45 45-20.1875 45-45 45zm0 0"/><path d="m407 90c-8.277344 0-15 6.722656-15 15s6.722656 15 15 15 15-6.722656 15-15-6.722656-15-15-15zm0 0"/><path d="m257 150c-57.890625 0-105 47.109375-105 105s47.109375 105 105 105 105-47.109375 105-105-47.109375-105-105-105zm0 0"/></symbol><symbol id="placeholder" viewBox="0 0 54.757 54.757">
<path d="M40.94,5.617C37.318,1.995,32.502,0,27.38,0c-5.123,0-9.938,1.995-13.56,5.617c-6.703,6.702-7.536,19.312-1.804,26.952
	L27.38,54.757L42.721,32.6C48.476,24.929,47.643,12.319,40.94,5.617z M27.557,26c-3.859,0-7-3.141-7-7s3.141-7,7-7s7,3.141,7,7
	S31.416,26,27.557,26z"/>
<g>
</g>
<g>
</g>
<g>
</g>
<g>
</g>
<g>
</g>
<g>
</g>
<g>
</g>
<g>
</g>
<g>
</g>
<g>
</g>
<g>
</g>
<g>
</g>
<g>
</g>
<g>
</g>
<g>
</g>
</symbol><symbol id="smartphone-call" viewBox="0 0 35 35">
<g>
	<path d="M25.302,0H9.698c-1.3,0-2.364,1.063-2.364,2.364v30.271C7.334,33.936,8.398,35,9.698,35h15.604
		c1.3,0,2.364-1.062,2.364-2.364V2.364C27.666,1.063,26.602,0,25.302,0z M15.004,1.704h4.992c0.158,0,0.286,0.128,0.286,0.287
		c0,0.158-0.128,0.286-0.286,0.286h-4.992c-0.158,0-0.286-0.128-0.286-0.286C14.718,1.832,14.846,1.704,15.004,1.704z M17.5,33.818
		c-0.653,0-1.182-0.529-1.182-1.183s0.529-1.182,1.182-1.182s1.182,0.528,1.182,1.182S18.153,33.818,17.5,33.818z M26.021,30.625
		H8.979V3.749h17.042V30.625z"/>
</g>
<g>
</g>
<g>
</g>
<g>
</g>
<g>
</g>
<g>
</g>
<g>
</g>
<g>
</g>
<g>
</g>
<g>
</g>
<g>
</g>
<g>
</g>
<g>
</g>
<g>
</g>
<g>
</g>
<g>
</g>
</symbol></svg>